<?xml version="1.0" encoding="UTF-8" standalone="no"?><!DOCTYPE svg PUBLIC "-//W3C//DTD SVG 1.1//EN" "http://www.w3.org/Graphics/SVG/1.1/DTD/svg11.dtd"><svg width="100%" height="100%" viewBox="0 0 442 560" version="1.1" xmlns="http://www.w3.org/2000/svg" xmlns:xlink="http://www.w3.org/1999/xlink" xml:space="preserve" xmlns:serif="http://www.serif.com/" style="fill-rule:evenodd;clip-rule:evenodd;stroke-linejoin:round;stroke-miterlimit:2;"><g><g><path id="Mask-Image" serif:id="Mask Image" d="M369.794,173.325c-0.184,-4.363 -0.469,-8.715 -0.846,-13.047c-1.531,-17.625 -4.494,-34.931 -8.406,-51.603c-3.441,-14.667 -7.634,-28.993 -12.878,-42.288c-1.945,-4.929 -4.042,-9.713 -6.328,-14.266c-2.721,-5.42 -5.715,-10.522 -9.036,-15.044c-3.985,-5.424 -8.456,-9.99 -13.344,-13.119c-6.209,-3.974 -12.93,-5.431 -19.601,-4.683c-4.578,0.513 -9.081,1.755 -13.612,2.841c-4.104,0.983 -8.213,1.92 -12.319,2.88c-14.371,3.36 -28.743,6.72 -43.115,10.08c-43.115,10.08 -86.23,20.161 -129.346,30.241c-4.467,1.045 -8.861,2.871 -13.057,5.509c-3.357,2.111 -6.582,4.737 -9.612,7.842c-2.425,2.485 -4.724,5.275 -6.87,8.33c-1.762,2.509 -3.421,5.195 -4.967,8.034c-10.254,18.837 -15.102,43.605 -14.695,68.236c0.068,4.104 0.277,8.202 0.62,12.271c5.426,64.416 1.155,130.167 -11.767,191.821c-0.838,3.993 -1.552,8.052 -2.129,12.158c-3.303,23.508 -2.014,49.088 6.099,69.924c1.176,3.02 2.486,5.91 3.922,8.637c1.748,3.317 3.681,6.389 5.774,9.166c2.63,3.49 5.508,6.508 8.557,9.012c3.876,3.183 8.017,5.528 12.271,7.096c42.534,15.681 153.319,56.523 166.178,61.263c3.957,1.459 7.914,2.91 11.87,4.376c5.111,1.894 10.206,3.687 15.442,4.52c8.101,1.288 16.279,-0.461 23.859,-5.15c6.211,-3.842 11.92,-9.485 17.081,-16.11c4.364,-5.601 8.353,-11.903 12.041,-18.594c3.094,-5.613 5.979,-11.509 8.694,-17.587c7.549,-16.898 13.869,-35.17 19.27,-53.98c5.143,-17.914 9.526,-36.507 12.411,-55.658c0.666,-4.415 1.244,-8.863 1.71,-13.341c6.87,-65.938 8.94,-133.093 6.129,-199.767Z" style="fill:#ebebeb;"/><clipPath id="_clip1"><path id="Mask-Image1" serif:id="Mask Image" d="M369.794,173.325c-0.184,-4.363 -0.469,-8.715 -0.846,-13.047c-1.531,-17.625 -4.494,-34.931 -8.406,-51.603c-3.441,-14.667 -7.634,-28.993 -12.878,-42.288c-1.945,-4.929 -4.042,-9.713 -6.328,-14.266c-2.721,-5.42 -5.715,-10.522 -9.036,-15.044c-3.985,-5.424 -8.456,-9.99 -13.344,-13.119c-6.209,-3.974 -12.93,-5.431 -19.601,-4.683c-4.578,0.513 -9.081,1.755 -13.612,2.841c-4.104,0.983 -8.213,1.92 -12.319,2.88c-14.371,3.36 -28.743,6.72 -43.115,10.08c-43.115,10.08 -86.23,20.161 -129.346,30.241c-4.467,1.045 -8.861,2.871 -13.057,5.509c-3.357,2.111 -6.582,4.737 -9.612,7.842c-2.425,2.485 -4.724,5.275 -6.87,8.33c-1.762,2.509 -3.421,5.195 -4.967,8.034c-10.254,18.837 -15.102,43.605 -14.695,68.236c0.068,4.104 0.277,8.202 0.62,12.271c5.426,64.416 1.155,130.167 -11.767,191.821c-0.838,3.993 -1.552,8.052 -2.129,12.158c-3.303,23.508 -2.014,49.088 6.099,69.924c1.176,3.02 2.486,5.91 3.922,8.637c1.748,3.317 3.681,6.389 5.774,9.166c2.63,3.49 5.508,6.508 8.557,9.012c3.876,3.183 8.017,5.528 12.271,7.096c42.534,15.681 153.319,56.523 166.178,61.263c3.957,1.459 7.914,2.91 11.87,4.376c5.111,1.894 10.206,3.687 15.442,4.52c8.101,1.288 16.279,-0.461 23.859,-5.15c6.211,-3.842 11.92,-9.485 17.081,-16.11c4.364,-5.601 8.353,-11.903 12.041,-18.594c3.094,-5.613 5.979,-11.509 8.694,-17.587c7.549,-16.898 13.869,-35.17 19.27,-53.98c5.143,-17.914 9.526,-36.507 12.411,-55.658c0.666,-4.415 1.244,-8.863 1.71,-13.341c6.87,-65.938 8.94,-133.093 6.129,-199.767Z"/></clipPath><g clip-path="url(#_clip1)"><clipPath id="_clip2"><path d="M-645.399,64l325.582,-0c9.237,-0 18.498,-0.195 27.731,0.139c6.918,0.251 13.822,0.818 20.714,1.48c13.903,1.334 27.775,3.13 41.729,3.819c10.617,0.523 21.333,0.437 31.85,-1.306c3.782,-0.627 7.533,-1.466 11.211,-2.575c3.703,-1.116 7.283,-2.579 10.886,-3.991c15.373,39.23 25.419,80.669 29.686,122.773c4.655,45.936 2.417,92.574 -6.598,137.81c-4.136,20.756 -9.688,41.209 -16.592,61.162c-2.322,6.709 -4.796,13.362 -7.419,19.952c-1.552,3.899 -3.27,7.731 -4.495,11.761c-1.162,3.826 -1.947,7.765 -2.422,11.743c-2.226,18.637 2.432,37.139 4.23,55.584c0.912,9.353 0.705,18.733 0.705,28.12l0,36.529l-466.798,-0l-0,-483Z"/></clipPath><g clip-path="url(#_clip2)"></g></g></g></g></svg>